<?xml version="1.0" encoding="utf-8"?>
<!-- Generator: Adobe Illustrator 26.0.3, SVG Export Plug-In . SVG Version: 6.00 Build 0)  -->
<svg version="1.0" id="katman_1" xmlns="http://www.w3.org/2000/svg" xmlns:xlink="http://www.w3.org/1999/xlink" x="0px" y="0px"
	 viewBox="0 0 800 600" style="enable-background:new 0 0 800 600;" xml:space="preserve">
<style type="text/css">
	.st0{fill:#77787B;}
	.st1{fill:url(#SVGID_1_);}
	.st2{fill:#FFFFFF;}
	.st3{fill:url(#SVGID_00000013909486187580701840000010702904712150972318_);}
	.st4{fill:url(#SVGID_00000031195459895592660290000015994366228846426501_);}
	.st5{fill:#CBCCCD;}
	.st6{fill:url(#SVGID_00000056421885299957873310000000987920225643956134_);}
	.st7{clip-path:url(#SVGID_00000109030532601292771680000007762825910017767861_);}
	.st8{fill:url(#SVGID_00000175304062890698281810000009134222745702186933_);}
	.st9{fill:#31699B;}
	.st10{fill:url(#SVGID_00000000912013783545777640000001295687096515808903_);}
	.st11{fill:url(#SVGID_00000029032088967356512840000016119295337563191741_);}
	.st12{fill:#EBEBEC;}
	.st13{clip-path:url(#SVGID_00000095327002088192200000000008201158773808659647_);}
	.st14{clip-path:url(#SVGID_00000145752020697994644740000002729495926080513720_);}
	.st15{fill:#DC2128;}
	.st16{fill:url(#SVGID_00000157284633018508225120000009403156776425737366_);}
	.st17{fill:url(#SVGID_00000099651671667102195570000010311313179090063551_);}
	.st18{opacity:0.5;fill:url(#SVGID_00000160152391977182072710000007266937470146536114_);enable-background:new    ;}
	.st19{opacity:0.5;fill:url(#SVGID_00000004532888920641220070000015227905812436410497_);enable-background:new    ;}
	.st20{opacity:0.4;}
	.st21{fill:url(#SVGID_00000163050290158789725300000009577697829908609191_);}
	.st22{opacity:0.6;fill:url(#SVGID_00000106856689803435416310000013001891222413058443_);enable-background:new    ;}
	.st23{fill:url(#SVGID_00000182505545259425402140000017080140375292118689_);}
	.st24{fill:url(#SVGID_00000143578201133131544520000011140885510447700152_);}
	.st25{clip-path:url(#SVGID_00000139259615744603304560000011883600229596191408_);}
	.st26{opacity:0.8;fill:url(#SVGID_00000116216542739634310720000006765584912481587868_);enable-background:new    ;}
	.st27{fill:#E0E1E1;}
</style>
<g>
	<g id="Calque_1">
		<path class="st0" d="M302.2,294c-3.4,0.2-6.8-1.1-9.1-3.6c-2.3-2.9-3.5-6.6-3.2-10.3c-0.2-3.8,0.9-7.5,3.3-10.5
			c2.4-2.6,5.8-3.9,9.3-3.7c1.3,0,2.6,0.2,3.9,0.4c1.1,0.2,2.1,0.5,3.1,1l-1.3,3.5c-0.9-0.5-1.9-0.9-2.9-1.3
			c-0.9-0.2-1.9-0.4-2.8-0.4c-5.5,0-8.3,3.5-8.3,10.5c-0.2,2.7,0.5,5.4,2,7.7c1.5,1.9,3.9,2.9,6.3,2.7c2.4,0,4.8-0.5,7-1.4v3.6
			C307.1,293.5,304.7,294.1,302.2,294z"/>
		<path class="st0" d="M334,293.5v-17.6c0.1-1.8-0.4-3.6-1.5-5c-1.3-1.1-3-1.5-4.7-1.3c-2.3-0.2-4.6,0.6-6.3,2.3
			c-1.5,2.3-2.2,5-1.9,7.7v14.2h-4.1V255h4.1v11.7c0.1,1.2,0.1,2.3,0,3.5l0,0c0.8-1.3,2-2.4,3.5-3.1c1.6-0.8,3.4-1.2,5.1-1.1
			c2.7-0.2,5.4,0.7,7.5,2.4c1.8,2.1,2.8,4.8,2.5,7.5v17.7L334,293.5z"/>
		<path class="st0" d="M359,265.8c1.1-0.1,2.2-0.1,3.3,0l-0.6,3.8c-1-0.2-2-0.4-2.9-0.4c-2.2,0-4.3,1-5.6,2.7
			c-1.6,1.8-2.4,4.2-2.3,6.7v14.6h-4.1v-26.9h3.4l0.5,5l0,0c0.9-1.6,2.1-3,3.6-4.1C355.6,266.3,357.3,265.8,359,265.8z"/>
		<path class="st0" d="M389.7,279.9c0.2,3.7-1,7.4-3.3,10.4c-2.4,2.5-5.8,3.9-9.2,3.7c-2.2,0-4.4-0.6-6.3-1.7
			c-1.9-1.2-3.4-2.9-4.3-4.9c-1.1-2.3-1.6-4.9-1.5-7.5c-0.3-3.7,0.7-7.3,2.9-10.3c2.4-2.5,5.8-3.9,9.2-3.7c3.4-0.2,6.7,1.2,9,3.8
			C388.6,272.5,389.9,276.2,389.7,279.9z M369,279.9c-0.2,2.8,0.5,5.6,2.1,7.9c3,3.5,8.2,3.9,11.7,0.9c0.3-0.3,0.6-0.6,0.9-0.9
			c1.6-2.3,2.3-5.1,2.1-7.9c0.2-2.8-0.5-5.5-2.1-7.8c-1.5-1.9-3.9-2.9-6.3-2.7c-2.4-0.2-4.8,0.8-6.3,2.6
			C369.6,274.3,368.8,277.1,369,279.9z"/>
		<path class="st0" d="M431.5,293.5v-17.6c0.1-1.7-0.4-3.5-1.4-4.9c-1.1-1.2-2.7-1.8-4.3-1.6c-2.1-0.2-4.2,0.6-5.6,2.2
			c-1.4,2-2.1,4.4-2,6.8v15.2H414v-17.6c0.1-1.7-0.4-3.5-1.4-4.9c-1.1-1.2-2.7-1.8-4.3-1.6c-2.1-0.2-4.2,0.7-5.6,2.3
			c-1.4,2.3-2,4.9-1.8,7.6v14.2h-4.1v-27.2h3.3l0.7,3.7l0,0c0.8-1.3,1.9-2.4,3.3-3.1c1.5-0.8,3.1-1.2,4.8-1.1
			c3.5-0.4,6.9,1.4,8.3,4.6l0,0c0.8-1.4,2-2.6,3.5-3.4c1.6-0.9,3.4-1.3,5.3-1.3c2.5-0.2,5,0.7,6.9,2.4c2,2.1,3,4.9,2.9,7.7v17.7
			L431.5,293.5z"/>
		<path class="st0" d="M455.8,294c-3.5,0.2-7-1.1-9.5-3.6c-2.4-2.8-3.7-6.5-3.5-10.2c-0.3-3.8,0.7-7.5,2.9-10.6
			c2.1-2.6,5.3-4,8.7-3.9c3.1-0.2,6,1.1,8.1,3.3c2.1,2.5,3.1,5.6,2.9,8.8v2.6h-18.8c-0.1,2.8,1,5.4,2.8,7.5c1.7,1.7,3.9,2.5,6.3,2.4
			c3-0.1,5.9-0.7,8.6-1.9v3.6c-1.3,0.6-2.7,1.1-4.1,1.4C458.8,293.8,457.3,294,455.8,294z M454.5,269.6c-2-0.1-3.9,0.7-5.2,2.1
			c-1.4,1.7-2.2,3.7-2.3,5.9h14.2c0.1-2.1-0.5-4.2-1.8-6C458.2,270.3,456.4,269.5,454.5,269.6z"/>
		<path class="st0" d="M508,293.5l-5-15.9c-0.3-1-0.9-3.2-1.8-6.7l0,0c-0.7,2.9-1.3,5.1-1.8,6.7l-5.1,15.9h-4.8l-7.4-27.2h4.3
			l3.8,15.8c0.7,2.4,1.2,4.8,1.6,7.2l0,0c0-1,0.3-2.2,0.9-3.6c0.6-1.5,0.9-2.7,1.1-3.6l5-15.6h4.5l5.1,15.6c0.8,2.3,1.4,4.7,1.9,7.2
			l0,0c0.1-0.9,0.3-1.9,0.5-2.8c0.3-1.3,2-7.9,5.1-20h4.3l-7.5,27.2L508,293.5z"/>
		<path class="st0" d="M536.7,294c-3.5,0.2-7-1.1-9.5-3.6c-2.4-2.8-3.7-6.5-3.5-10.2c-0.3-3.8,0.8-7.6,3.1-10.6
			c2.1-2.6,5.3-4,8.7-3.9c3.1-0.2,6,1.1,8.1,3.3c2.1,2.5,3.1,5.6,2.9,8.8v2.6h-18.8c-0.1,2.6,0.7,5.2,2.4,7.3
			c1.7,1.7,3.9,2.5,6.3,2.4c3.1,0.1,6.2-0.5,9-1.8v3.6c-1.3,0.6-2.7,1.1-4.1,1.4C539.8,293.8,538.3,294,536.7,294z M535.6,269.6
			c-2-0.1-3.9,0.7-5.2,2.1c-1.4,1.7-2.2,3.7-2.3,5.9h14.2c0.1-2.1-0.5-4.2-1.8-6C539.2,270.3,537.4,269.5,535.6,269.6z"/>
		<path class="st0" d="M566.3,265.9c3.2-0.2,6.2,1.2,8.3,3.6c2.1,3,3.2,6.7,2.9,10.4c0.2,3.7-0.8,7.4-3,10.4c-2,2.5-5.1,3.9-8.3,3.7
			c-1.7,0-3.3-0.3-4.8-1c-1.5-0.7-2.8-1.7-3.7-3l0,0l-0.9,3.5h-3.1V255h4.1v9.3c0,2.1,0,4,0,5.6l0,0
			C559.8,267.3,563,265.7,566.3,265.9z M565.7,269.4c-2.4-0.3-4.7,0.6-6.3,2.4c-1.5,2.5-2.1,5.3-1.9,8.2c-0.2,2.8,0.4,5.7,1.9,8.2
			c1.6,1.8,3.9,2.7,6.3,2.4c2.2,0.2,4.4-0.9,5.6-2.8c1.4-2.4,2-5.1,1.9-7.9c0.2-2.8-0.5-5.5-1.9-7.9c-1.4-1.7-3.5-2.6-5.7-2.3
			L565.7,269.4z"/>
		<path class="st0" d="M615.4,286.1c0.1,2.3-1,4.5-2.8,5.8c-2.4,1.5-5.1,2.2-7.9,2.1c-2.9,0.2-5.8-0.4-8.4-1.7v-3.9
			c1.3,0.7,2.7,1.2,4.2,1.6c1.4,0.4,2.9,0.6,4.3,0.6c1.7,0.1,3.4-0.2,5-1c1.7-1,2.3-3.1,1.3-4.8c-0.2-0.4-0.5-0.8-0.9-1
			c-1.6-1.1-3.4-2-5.3-2.6c-1.9-0.6-3.7-1.4-5.4-2.4c-1-0.6-1.8-1.4-2.4-2.4c-0.5-1-0.8-2.1-0.8-3.2c0-2.1,1-4.1,2.7-5.3
			c2.2-1.4,4.8-2.1,7.4-1.9c3,0,5.9,0.6,8.6,1.8l-1.4,3.3c-2.4-0.9-5-1.4-7.5-1.3c-1.5-0.1-3,0.2-4.4,0.9c-0.9,0.5-1.5,1.5-1.5,2.5
			c0,0.7,0.2,1.3,0.6,1.9c0.5,0.6,1.1,1.1,1.8,1.4c1.5,0.8,3.1,1.4,4.8,2c2.3,0.7,4.4,1.9,6.3,3.5
			C614.7,283,615.4,284.5,615.4,286.1z"/>
		<path class="st0" d="M630.9,290.6h2.1l1.6-0.3v3.1c-0.6,0.3-1.3,0.4-1.9,0.5c-0.8,0.1-1.5,0.1-2.3,0c-5.3,0-7.9-2.8-7.9-8.3v-16.1
			h-3.9v-2l3.9-1.7l1.8-5.8h2.4v6.3h7.9v3.2h-8v16c-0.1,1.4,0.3,2.7,1.2,3.8C628.6,290.2,629.7,290.7,630.9,290.6z"/>
		<path class="st0" d="M663.4,279.9c0.2,3.7-1,7.4-3.3,10.4c-2.4,2.5-5.8,3.9-9.2,3.7c-2.2,0-4.4-0.6-6.3-1.7
			c-1.9-1.2-3.4-2.9-4.3-4.9c-1.1-2.3-1.6-4.9-1.5-7.5c-0.3-3.7,0.8-7.4,3.1-10.3c2.4-2.5,5.8-3.9,9.2-3.7c3.4-0.2,6.7,1.2,9,3.8
			C662.5,272.6,663.6,276.2,663.4,279.9z M642.7,279.9c-0.2,2.8,0.5,5.6,2.1,7.9c3,3.5,8.2,3.9,11.7,0.9c0.3-0.3,0.6-0.6,0.9-0.9
			c1.6-2.3,2.3-5.1,2.1-7.9c0.2-2.8-0.5-5.5-2.1-7.8c-1.5-1.9-3.9-2.9-6.3-2.7c-2.4-0.2-4.8,0.8-6.3,2.6
			C643.3,274.3,642.6,277.1,642.7,279.9L642.7,279.9z"/>
		<path class="st0" d="M683.1,265.8c1.1-0.1,2.2-0.1,3.3,0l-0.6,3.8c-1-0.2-2-0.4-2.9-0.4c-2.2,0-4.3,1-5.6,2.7
			c-1.6,1.8-2.4,4.2-2.3,6.7v14.6h-4.1v-26.9h3.4l0.4,5l0,0c0.9-1.6,2.1-3,3.6-4.1C679.6,266.3,681.3,265.8,683.1,265.8z"/>
		<path class="st0" d="M701.8,294c-3.5,0.2-7-1.1-9.5-3.6c-2.4-2.8-3.7-6.5-3.5-10.2c-0.3-3.8,0.9-7.6,3.2-10.6
			c2.1-2.5,5.2-3.8,8.4-3.8c3.1-0.2,6,1.1,8.1,3.3c2.1,2.5,3.1,5.6,2.9,8.8v2.6h-18.8c-0.1,2.6,0.8,5.2,2.4,7.3
			c1.7,1.7,3.9,2.5,6.3,2.4c3,0,5.9-0.6,8.7-1.8v3.6c-1.3,0.6-2.7,1.1-4.1,1.4C704.6,293.8,703.2,294,701.8,294z M700.5,269.6
			c-2-0.1-3.9,0.7-5.2,2.1c-1.4,1.7-2.2,3.7-2.3,5.9h14.2c0.1-2.1-0.5-4.2-1.8-6C704.2,270.3,702.4,269.5,700.5,269.6z"/>
		
			<linearGradient id="SVGID_1_" gradientUnits="userSpaceOnUse" x1="154.6891" y1="448.9145" x2="152.0102" y2="434.8289" gradientTransform="matrix(1.4522 0 0 -1.4522 -21.3971 876.2867)">
			<stop  offset="0" style="stop-color:#E73C42"/>
			<stop  offset="1" style="stop-color:#A8222D"/>
		</linearGradient>
		<polygon class="st1" points="139.7,191.7 139.7,293 252.5,332.3 252.5,225.6 		"/>
		<path class="st2" d="M203.8,222.4c0.1,1.1-0.8,2.1-1.9,2.2c-0.4,0-0.7,0-1-0.2l-21.8-6.3c-1.7-0.6-2.8-2.1-2.9-3.8l0,0
			c-0.1-1.2,0.9-2.2,2-2.2c0.3,0,0.6,0,0.9,0.2l21.8,6.3C202.6,219.1,203.7,220.6,203.8,222.4z"/>
		
			<linearGradient id="SVGID_00000116947520983260192510000013031618311074520707_" gradientUnits="userSpaceOnUse" x1="175.5977" y1="449.9991" x2="172.4868" y2="266.4113" gradientTransform="matrix(1.4522 0 0 -1.4522 -21.3971 876.2867)">
			<stop  offset="0" style="stop-color:#FFDC4A"/>
			<stop  offset="1" style="stop-color:#F3B525"/>
		</linearGradient>
		<polygon style="fill:url(#SVGID_00000116947520983260192510000013031618311074520707_);" points="212.5,246.6 212.5,358.5 
			252.5,332.3 252.5,225.6 		"/>
		
			<linearGradient id="SVGID_00000110438501655925997400000012888328668662418567_" gradientUnits="userSpaceOnUse" x1="95.2246" y1="461.1041" x2="95.4839" y2="448.7036" gradientTransform="matrix(1.4522 0 0 -1.4522 -21.3971 876.2867)">
			<stop  offset="0" style="stop-color:#35AC5A"/>
			<stop  offset="0.2" style="stop-color:#2AAA59"/>
			<stop  offset="0.45" style="stop-color:#00A24F"/>
			<stop  offset="0.74" style="stop-color:#008745"/>
			<stop  offset="1" style="stop-color:#026838"/>
		</linearGradient>
		<polygon style="fill:url(#SVGID_00000110438501655925997400000012888328668662418567_);" points="96,207.7 96,315.7 139.7,292.9 
			139.7,191.7 		"/>
		<polygon class="st5" points="96.3,316 96,315.4 139.1,293 139.1,192 139.7,191.8 139.7,293.3 		"/>
		
			<linearGradient id="SVGID_00000058567881663579107070000003192498549251282109_" gradientUnits="userSpaceOnUse" x1="61.9007" y1="418.175" x2="110.1632" y2="410.268" gradientTransform="matrix(1.4522 0 0 -1.4522 -21.3971 876.2867)">
			<stop  offset="0" style="stop-color:#808081"/>
			<stop  offset="1.000000e-02" style="stop-color:#838383"/>
			<stop  offset="8.000000e-02" style="stop-color:#A4A3A3"/>
			<stop  offset="0.16" style="stop-color:#C0C0BF"/>
			<stop  offset="0.24" style="stop-color:#D7D8D7"/>
			<stop  offset="0.34" style="stop-color:#E9E9E9"/>
			<stop  offset="0.47" style="stop-color:#F6F6F6"/>
			<stop  offset="0.63" style="stop-color:#FEFEFE"/>
			<stop  offset="1" style="stop-color:#FFFFFF"/>
		</linearGradient>
		<path style="fill:url(#SVGID_00000058567881663579107070000003192498549251282109_);" d="M96,207.7v108l116.5,42.8V246.6L96,207.7
			z"/>
		<g>
			<defs>
				<polygon id="SVGID_00000053547067942399226190000005867958015222413443_" points="96,207.7 96,315.7 212.5,358.5 212.5,246.6 
									"/>
			</defs>
			<clipPath id="SVGID_00000101793793048546578680000015157920226146497696_">
				<use xlink:href="#SVGID_00000053547067942399226190000005867958015222413443_"  style="overflow:visible;"/>
			</clipPath>
			<g style="clip-path:url(#SVGID_00000101793793048546578680000015157920226146497696_);">
				
					<image style="overflow:visible;opacity:0.75;enable-background:new    ;" width="38" height="38" xlink:href="963CB1D9.png"  transform="matrix(6.1094 0 0 6.1094 23.1249 199.8404)">
				</image>
				
					<radialGradient id="SVGID_00000122715143424199074670000016612847442775890842_" cx="2054.4087" cy="-2096.9373" r="44.9788" gradientTransform="matrix(0.697 0 0 -0.697 -1320.8251 -1183.5626)" gradientUnits="userSpaceOnUse">
					<stop  offset="0" style="stop-color:#56A9DE"/>
					<stop  offset="0.22" style="stop-color:#47A0D9"/>
					<stop  offset="0.61" style="stop-color:#2287C8"/>
					<stop  offset="0.94" style="stop-color:#006BAF"/>
				</radialGradient>
				<path style="fill:url(#SVGID_00000122715143424199074670000016612847442775890842_);" d="M140.6,337.4l1-0.3
					c-1-0.1-2.1-0.2-3.1-0.4c-11.9-3.6-20.1-14.5-20.3-27c0-2.7,0.4-5.3,1.4-7.8l0,0c2.1-6,7.8-10.1,14.2-10c1.4,0,2.7,0.2,4.1,0.5
					c6.7,1.8,12.4,6.1,15.9,12.1l0,0c2.8,4.5,4.3,9.6,4.4,14.9c0.8,8.9-5.7,16.9-14.7,17.7c-0.3,0-0.7,0.1-1,0.1h-1l1,1.4
					L140.6,337.4z"/>
				<path class="st9" d="M133.9,293c1.3,0,2.6,0.1,3.8,0.4c6.4,1.7,11.9,5.9,15.2,11.6l0,0c2.7,4.3,4.2,9.2,4.3,14.3
					c0.9,8.2-5,15.6-13.3,16.5c-0.4,0-0.9,0.1-1.3,0.1h-0.9v1.9l0,0v-1.9c-1-0.1-1.9-0.2-2.9-0.4c-11.4-3.5-19.3-14-19.4-25.9
					c0-2.5,0.4-5,1.3-7.3C122.7,296.7,128,292.9,133.9,293 M133.9,290.7c-6.9-0.1-13.1,4.2-15.4,10.7l0,0l0,0
					c-1,2.6-1.6,5.4-1.6,8.2c0.1,13,8.7,24.4,21.1,28.1c1.1,0.3,2.2,0.4,3.3,0.5v-0.6v0.6h1.1c9.5-0.2,17.1-8.1,16.9-17.6
					c0-0.4,0-0.8-0.1-1.2c-0.1-5.5-1.7-10.9-4.6-15.6l0,0c-3.7-6.2-9.6-10.7-16.6-12.5c-1.4-0.3-2.9-0.5-4.3-0.5L133.9,290.7z"/>
			</g>
		</g>
		
			<linearGradient id="SVGID_00000002381732585095473660000008336617860789045167_" gradientUnits="userSpaceOnUse" x1="107.8716" y1="440.0707" x2="118.5438" y2="438.2992" gradientTransform="matrix(1.4522 0 0 -1.4522 -21.3971 876.2867)">
			<stop  offset="0" style="stop-color:#B5B7B9"/>
			<stop  offset="4.000000e-02" style="stop-color:#C1C2C4"/>
			<stop  offset="0.14" style="stop-color:#D7D8D9"/>
			<stop  offset="0.25" style="stop-color:#E9EAEA"/>
			<stop  offset="0.39" style="stop-color:#F6F6F6"/>
			<stop  offset="0.58" style="stop-color:#FEFEFE"/>
			<stop  offset="1" style="stop-color:#FFFFFF"/>
		</linearGradient>
		<path style="fill:url(#SVGID_00000002381732585095473660000008336617860789045167_);" d="M165.7,247.5l-22.9-7.5
			c-1.9-0.7-3.2-2.4-3.3-4.5c-0.1-1.3,0.9-2.4,2.2-2.4c0.4,0,0.8,0.1,1.1,0.2l22.9,7.5c1.9,0.7,3.2,2.4,3.3,4.5
			c0.1,1.3-0.9,2.4-2.2,2.4C166.4,247.7,166,247.6,165.7,247.5z"/>
		
			<linearGradient id="SVGID_00000110473295940576912410000008276711364342622639_" gradientUnits="userSpaceOnUse" x1="110.7634" y1="437.9014" x2="131.1173" y2="437.9014" gradientTransform="matrix(1.4522 0 0 -1.4522 -21.3971 876.2867)">
			<stop  offset="0" style="stop-color:#DA1F30"/>
			<stop  offset="1" style="stop-color:#A8222D"/>
		</linearGradient>
		<path style="fill:url(#SVGID_00000110473295940576912410000008276711364342622639_);" d="M165.7,247.5l-22.9-7.5
			c-1.9-0.7-3.2-2.4-3.3-4.5c-0.1-1.3,0.9-2.4,2.2-2.4c0.4,0,0.8,0.1,1.1,0.2l22.9,7.5c1.9,0.7,3.2,2.4,3.3,4.5
			c0.1,1.3-0.9,2.4-2.2,2.4C166.4,247.7,166,247.6,165.7,247.5z"/>
		<polygon class="st12" points="252.5,331.6 252.5,225.6 251.9,225.9 251.9,332 		"/>
		<g>
			<defs>
				<polygon id="SVGID_00000126322689288311007260000007367275146340166585_" points="96,207.7 96,315.7 212.5,358.5 212.5,246.6 
									"/>
			</defs>
			<clipPath id="SVGID_00000003788296284891702190000017137265907757990553_">
				<use xlink:href="#SVGID_00000126322689288311007260000007367275146340166585_"  style="overflow:visible;"/>
			</clipPath>
			<g style="clip-path:url(#SVGID_00000003788296284891702190000017137265907757990553_);">
				<g>
					<defs>
						<path id="SVGID_00000075868447329857406120000004930946642908769428_" d="M117.7,261.1c-25.1,9.2-37,40.8-26.2,70.5
							s40.1,46.4,65.3,37.2s37-40.7,26.2-70.5C172.2,268.6,142.9,252,117.7,261.1z"/>
					</defs>
					<clipPath id="SVGID_00000150080726130057581490000003249291160915241344_">
						<use xlink:href="#SVGID_00000075868447329857406120000004930946642908769428_"  style="overflow:visible;"/>
					</clipPath>
					<g style="clip-path:url(#SVGID_00000150080726130057581490000003249291160915241344_);">
						
							<image style="overflow:visible;opacity:0.7;enable-background:new    ;" width="20" height="21" xlink:href="963CB1DB.png"  transform="matrix(5.9608 0 0 5.9608 77.462 260.6088)">
						</image>
						
							<ellipse transform="matrix(0.9397 -0.342 0.342 0.9397 -99.4912 65.9542)" class="st2" cx="137.3" cy="315.1" rx="23.8" ry="28"/>
						<path class="st15" d="M110.7,241.8c-18.5,7.2-32.5,22.9-37.6,42.1l51.3,49.3l0,0c-3.3-3-5.8-6.7-7.3-10.9
							c-4.8-13.1,0.4-26.9,11.5-30.9l58.9-21.5C168.7,244.1,137.9,232,110.7,241.8z"/>
						
							<radialGradient id="SVGID_00000034806664291018348160000018212128819514637718_" cx="-632.906" cy="-142.1138" r="48.8675" gradientTransform="matrix(1.1617 -0.4211 -0.4937 -1.3651 785.1745 -160.2381)" gradientUnits="userSpaceOnUse">
							<stop  offset="0.66" style="stop-color:#56B14C"/>
							<stop  offset="0.77" style="stop-color:#53B04A"/>
							<stop  offset="0.85" style="stop-color:#4BAB46"/>
							<stop  offset="0.92" style="stop-color:#419943"/>
							<stop  offset="1" style="stop-color:#38823E"/>
							<stop  offset="1" style="stop-color:#37803E"/>
						</radialGradient>
						<path style="fill:url(#SVGID_00000034806664291018348160000018212128819514637718_);" d="M96.7,371.2
							c14.3,14.6,34.3,21.9,54.7,20l7.6-70.7l0,0c-0.4,4.1-1.9,8-4.3,11.4c-6.5,8.8-18.9,10.6-27.7,4c-1.1-0.8-2.1-1.7-3-2.7
							l-50.9-49.3C64.5,315.1,73.5,348.6,96.7,371.2z"/>
						
							<radialGradient id="SVGID_00000146478561539292607400000007358899264695491237_" cx="-634.1157" cy="-140.7312" r="50.2501" gradientTransform="matrix(1.1617 -0.4211 -0.4937 -1.3651 785.1745 -160.2381)" gradientUnits="userSpaceOnUse">
							<stop  offset="0.66" style="stop-color:#FED103"/>
							<stop  offset="0.76" style="stop-color:#FCCE06"/>
							<stop  offset="0.84" style="stop-color:#F3C40D"/>
							<stop  offset="0.91" style="stop-color:#E6B318"/>
							<stop  offset="0.98" style="stop-color:#D39B24"/>
							<stop  offset="1" style="stop-color:#CC912A"/>
						</radialGradient>
						<path style="fill:url(#SVGID_00000146478561539292607400000007358899264695491237_);" d="M204.5,332
							c2.2-22.1-3.8-44.2-16.9-62.1l-58.9,21.4l0,0c3.6-1.3,7.5-1.5,11.2-0.5c12.5,4.1,20.4,16.5,18.8,29.6l-7.3,70.8
							C178.9,387.9,200.9,364.8,204.5,332z"/>
						
							<linearGradient id="SVGID_00000072261762381097783260000002819835589070216364_" gradientUnits="userSpaceOnUse" x1="-825.2976" y1="-180.2291" x2="-831.6489" y2="-179.9698" gradientTransform="matrix(1.3651 -0.4937 -0.4937 -1.3651 1192.4248 -308.5786)">
							<stop  offset="0" style="stop-color:#37803E"/>
							<stop  offset="1" style="stop-color:#37803E;stop-opacity:0.25"/>
						</linearGradient>
						
							<polyline style="opacity:0.5;fill:url(#SVGID_00000072261762381097783260000002819835589070216364_);enable-background:new    ;" points="
							147,322.8 152.2,370.2 153.7,369.9 159,320.7 						"/>
						
							<linearGradient id="SVGID_00000147904413706566541930000016718026871279743114_" gradientUnits="userSpaceOnUse" x1="-817.0278" y1="-129.6536" x2="-815.343" y2="-136.5237" gradientTransform="matrix(1.3651 -0.4937 -0.4937 -1.3651 1192.4248 -308.5786)">
							<stop  offset="0" style="stop-color:#CC942B"/>
							<stop  offset="1" style="stop-color:#CC942B;stop-opacity:0.25"/>
						</linearGradient>
						
							<polyline style="opacity:0.5;fill:url(#SVGID_00000147904413706566541930000016718026871279743114_);enable-background:new    ;" points="
							137.3,302.3 170.7,277.8 169.5,276.5 128.7,291.4 						"/>
						<g class="st20">
							
								<radialGradient id="SVGID_00000081635787596332014800000013380991532436325309_" cx="-716.5777" cy="-146.0012" r="47.6145" gradientTransform="matrix(1.1599 -0.4222 -0.4967 -1.3646 786.9333 -160.4902)" gradientUnits="userSpaceOnUse">
								<stop  offset="0.66" style="stop-color:#4E2011;stop-opacity:0"/>
								<stop  offset="0.75" style="stop-color:#4E2011;stop-opacity:4.000000e-02"/>
								<stop  offset="0.83" style="stop-color:#4E2011;stop-opacity:0.17"/>
								<stop  offset="0.89" style="stop-color:#4E2011;stop-opacity:0.38"/>
								<stop  offset="0.96" style="stop-color:#4E2011;stop-opacity:0.68"/>
								<stop  offset="1" style="stop-color:#4E2011;stop-opacity:0.95"/>
							</radialGradient>
							<path style="fill:url(#SVGID_00000081635787596332014800000013380991532436325309_);" d="M13.3,299.4
								c25.2-9.2,54.3,7.4,65.1,37.1c10.8,29.6-0.9,61.1-26,70.2c-25.2,9.2-54.3-7.4-65.1-37.1S-11.9,308.6,13.3,299.4z"/>
						</g>
					</g>
				</g>
				
					<linearGradient id="SVGID_00000169539412785407729280000013356107954897815936_" gradientUnits="userSpaceOnUse" x1="-850.712" y1="-151.0429" x2="-845.2249" y2="-142.8334" gradientTransform="matrix(1.3651 -0.4937 -0.4937 -1.3651 1192.4248 -308.5786)">
					<stop  offset="0" style="stop-color:#A01D22"/>
					<stop  offset="1" style="stop-color:#A01D22;stop-opacity:0.25"/>
				</linearGradient>
				
					<polyline style="opacity:0.6;fill:url(#SVGID_00000169539412785407729280000013356107954897815936_);enable-background:new    ;" points="
					127.3,319.9 88.7,297.1 88.4,298.8 124,333 				"/>
				
					<radialGradient id="SVGID_00000176743356961558214850000000810117788298724513_" cx="-473.5045" cy="145.1207" r="31.2389" gradientTransform="matrix(0.1034 1.4305 1.4529 4.299555e-02 -26.7274 969.1479)" gradientUnits="userSpaceOnUse">
					<stop  offset="0" style="stop-color:#FFFFFF"/>
					<stop  offset="0.3" style="stop-color:#F6F6F6"/>
					<stop  offset="0.79" style="stop-color:#DDDEDE"/>
					<stop  offset="1" style="stop-color:#D1D2D2"/>
				</radialGradient>
				<path style="fill:url(#SVGID_00000176743356961558214850000000810117788298724513_);" d="M128.6,291.3
					c11.2-4.1,24.1,3.3,28.9,16.5c4.8,13.2-0.4,27.1-11.6,31.2c-11.2,4.1-24.1-3.3-28.9-16.5C112.3,309.3,117.4,295.3,128.6,291.3z"
					/>
				
					<radialGradient id="SVGID_00000035528956382209864640000011948419086829865899_" cx="-455.4143" cy="92.4654" r="30.6772" gradientTransform="matrix(0.4967 1.3646 1.3919 -0.5066 233.2009 959.5788)" gradientUnits="userSpaceOnUse">
					<stop  offset="0" style="stop-color:#86B8E2"/>
					<stop  offset="0.63" style="stop-color:#3B80C3"/>
					<stop  offset="0.71" style="stop-color:#357CBE"/>
					<stop  offset="0.83" style="stop-color:#2572B0"/>
					<stop  offset="0.96" style="stop-color:#095F9A"/>
					<stop  offset="1" style="stop-color:#005891"/>
				</radialGradient>
				<path style="fill:url(#SVGID_00000035528956382209864640000011948419086829865899_);" d="M129.9,294.9c9.5-3.4,20.5,2.8,24.5,14
					s-0.3,23-9.8,26.5s-20.5-2.8-24.5-14S120.4,298.4,129.9,294.9z"/>
				<g>
					<defs>
						<path id="SVGID_00000066473895412795356160000010089033953141054611_" d="M117.7,261.1c-25.1,9.2-37,40.8-26.2,70.5
							s40.1,46.4,65.3,37.2s37-40.7,26.2-70.5C172.2,268.6,142.9,252,117.7,261.1z"/>
					</defs>
					<clipPath id="SVGID_00000044153850027521388390000009436739040846211255_">
						<use xlink:href="#SVGID_00000066473895412795356160000010089033953141054611_"  style="overflow:visible;"/>
					</clipPath>
					<g style="clip-path:url(#SVGID_00000044153850027521388390000009436739040846211255_);">
						
							<radialGradient id="SVGID_00000044177258085414840480000014416950898356519305_" cx="-2175.3057" cy="-2520.8359" r="32.6647" gradientTransform="matrix(1.4667 -0.6099 -0.4357 -1.0891 2164.7048 -3700.4719)" gradientUnits="userSpaceOnUse">
							<stop  offset="0.16" style="stop-color:#EF7D66"/>
							<stop  offset="0.4" style="stop-color:#EF7D61;stop-opacity:0.68"/>
							<stop  offset="0.7" style="stop-color:#EF7C5D;stop-opacity:0.32"/>
							<stop  offset="0.9" style="stop-color:#EF7C5A;stop-opacity:9.000000e-02"/>
							<stop  offset="1" style="stop-color:#EF7C5A;stop-opacity:0"/>
						</radialGradient>
						
							<path style="opacity:0.8;fill:url(#SVGID_00000044177258085414840480000014416950898356519305_);enable-background:new    ;" d="
							M162.3,240.8c7.8,19.5-7.2,44.2-33.5,55.2s-54.1,4-62-15.6c-7.9-19.5,7.3-44.2,33.6-55.2S154.6,221.2,162.3,240.8z"/>
					</g>
				</g>
			</g>
		</g>
		<polygon class="st27" points="252.5,332.3 212.4,358.5 212.4,358.5 212.5,358.5 96,315.7 96,207.7 96.6,207.9 96.6,315.3 
			212.5,357.8 252.5,331.6 		"/>
	</g>
</g>
</svg>
